<svg xmlns="http://www.w3.org/2000/svg" version="1.1" style="display: block;" viewBox="0 0 2048 2048" width="1024" height="1024" preserveAspectRatio="none">
<path transform="translate(0,0)" fill="rgb(251,254,253)" d="M 0 0 L 942.97 0 L 1093.7 0 L 2048 0 L 2048 961.351 L 2048 1061.51 L 2048 2048 L 0 2048 L 0 1118.04 L 0 944.11 L 0 0 z"/>
<path transform="translate(0,0)" fill="rgb(117,168,215)" d="M 0 0 L 942.97 0 L 1093.7 0 C 1101.26 4.04679 1118.4 2.11747 1127.08 4.08769 C 1157.06 10.8995 1185.79 13.436 1216.34 15.4454 C 1223 15.8839 1234.3 23.0187 1241.19 24.2835 C 1262.23 26.0771 1280.47 29.3896 1300.3 36.739 C 1307.34 39.3465 1318.71 39.2298 1325.87 41.9855 C 1351.04 51.7861 1373.57 63.3423 1399.9 70.2879 C 1408.01 72.4277 1420.93 81.1134 1430.61 83.9204 C 1452.55 90.2798 1469.16 99.2245 1488.93 110.372 L 1534.61 136.194 C 1587.43 166.681 1637.91 199.644 1682.98 240.957 C 1703.61 259.861 1730.52 278.144 1748.99 298.797 C 1788.54 343.557 1830.04 385.139 1861.55 436.524 C 1881.58 469.197 1906.17 498.815 1924.33 532.607 C 1944.96 570.996 1964.52 615.375 1980.5 656.009 C 1989.76 679.558 1993.76 705.266 2005.37 728.287 C 2008.54 735.236 2009.43 746.191 2011.91 753.636 C 2020.63 780.406 2021.59 786.547 2020.65 814.175 L 1851.56 812.929 C 1851.21 825.703 1851.41 834.954 1847.57 847.434 C 1845.85 853.045 1838.66 868.811 1838.41 873.344 C 1837.35 892.802 1836.18 902.349 1826.52 919.744 C 1824.37 923.621 1827.67 939.96 1825.52 945.051 C 1823.28 952.902 1820.65 960.401 1817.54 967.928 C 1815.93 972.651 1811.44 980 1810.87 984.825 C 1807.33 1012.27 1801.52 1041.25 1792.96 1067.56 C 1787.86 1083.23 1788.95 1097.43 1785.08 1112.13 C 1780.74 1128.66 1773.61 1140.93 1770.33 1158.85 C 1766.41 1180.25 1757.95 1201.43 1755.95 1223.67 C 1755.07 1230.29 1746.62 1256.69 1742.52 1260.85 C 1740.71 1260.76 1739.42 1260.63 1738.15 1258.41 C 1731.71 1247.09 1732.61 1231.41 1729.09 1219 C 1726.31 1209.23 1722.18 1207.95 1718.78 1197.99 C 1712.98 1181 1710.08 1163.22 1705.09 1146.4 C 1703.02 1139.44 1692.01 1125.91 1689.06 1117.02 C 1685.2 1105.39 1684.39 1094.81 1680.84 1083.35 C 1679.45 1078.86 1672.05 1071.17 1670.85 1067.42 C 1668.32 1059.55 1666.73 1050.66 1663.92 1042.78 L 1597.31 849.619 C 1592.9 836.775 1584.32 822.701 1580.61 809.907 C 1575.06 790.773 1564.22 769.471 1562.83 749.865 C 1562.43 744.183 1564.14 740.244 1558.81 737.865 C 1554.18 738.306 1553.25 738.918 1548.85 740.743 C 1548.33 690.827 1516.71 634.307 1501.79 586.456 C 1488.92 545.195 1474.73 504.256 1457.97 464.436 C 1452.78 452.103 1450 436.418 1445.03 423.743 C 1440.12 408.354 1430.77 391.352 1428.53 377.019 C 1426.42 363.547 1436.27 344.98 1440.4 331.755 C 1445.03 316.962 1443.72 308.958 1444.47 294.572 C 1446.22 261.291 1437.26 238.46 1412.3 214.832 C 1409.6 212.269 1406.6 210.031 1403.38 208.166 C 1396.73 204.281 1387.12 200.767 1379.99 197.137 C 1372.4 193.273 1362.53 185.6 1354.57 184.207 C 1342.98 182.18 1326.65 182.919 1314.72 183.474 L 1313.01 183.566 C 1300.6 198.879 1295.83 194.382 1282.79 203.59 C 1248.38 227.882 1230.36 267.9 1234.32 309.563 C 1236.96 337.349 1255.33 355.258 1257.85 374.583 C 1258.62 380.698 1258.22 386.904 1256.67 392.869 C 1254.84 399.835 1248.41 407.773 1246.42 415.115 L 1223.64 501.128 C 1220.44 513.159 1220.44 523.626 1214.48 534.661 C 1210 543.738 1208.97 554.119 1205.88 563.764 C 1203.67 570.685 1199.69 577.42 1197.56 584.163 C 1192.86 599.109 1188.75 614.265 1183.73 629.143 C 1181.35 636.206 1181.25 645.571 1179.02 652.799 C 1176.68 661.887 1173.25 670.3 1171.03 679.507 C 1169.26 686.255 1169.3 693.886 1167.37 700.516 C 1165.83 705.807 1157.17 715.133 1156.28 720.199 C 1152.64 740.835 1156.04 748.043 1143.08 765.879 C 1139.34 771.018 1135.16 796.565 1131.06 803.506 C 1128.01 812.014 1127.72 823.995 1125.17 832.849 C 1123.26 839.476 1119.09 847.232 1117.15 853.588 C 1113.21 866.44 1109.38 879.301 1105.21 892.101 C 1103.06 898.693 1102.88 909.552 1100.55 916.18 C 1098.01 923.424 1092.66 930.999 1090.08 938.487 C 1086.75 948.149 1086.64 961.344 1083.7 970.806 C 1079.05 985.797 1073.91 1000.84 1069.26 1015.86 C 1066.95 1022.89 1064.26 1029.89 1062.16 1036.95 C 1061.09 1040.55 1061.16 1056.18 1060.13 1057.6 C 1049.35 1072.48 1050.78 1085.23 1046.36 1100.57 C 1038.96 1126.27 1027.68 1150.82 1024.07 1177.4 C 1020.92 1187.14 1015.24 1194.25 1013.34 1200.86 C 1010.48 1210.78 1011.08 1217.34 1007.14 1228.47 L 1006.52 1230.26 C 994.507 1251.22 996.774 1253.54 990.49 1276.36 L 979.318 1316.87 C 976.828 1326 972.81 1335.7 970.903 1344.9 C 969.258 1352.84 968.446 1362.78 967.631 1370.97 C 962.974 1362.71 956.106 1355.79 951.872 1347.41 C 948.588 1340.91 946.961 1333.1 944.746 1326.15 C 941.914 1317.27 937.973 1308.75 935.227 1299.85 C 932.803 1292 931.398 1283.82 928.476 1276.12 C 922.875 1261.36 917.148 1244.78 911 1230.48 C 906.138 1219.16 900.103 1208.11 895.796 1196.6 C 890.346 1182.04 888.311 1166.08 883.362 1151.28 C 880.148 1141.67 873.929 1133.26 870.417 1123.75 C 864.885 1108.75 859.012 1093.12 854.331 1077.85 C 852.003 1070.26 850.702 1062.3 848.098 1054.8 C 846.155 1049.2 840.972 1045.94 838.836 1040.59 C 835.653 1032.63 833.864 1023.94 830.858 1015.85 C 827.014 1005.51 822 995.616 818.184 985.254 C 814.782 976.016 813.137 966.256 809.998 956.943 C 804.215 939.78 797.335 922.988 791.319 905.906 C 788.003 896.491 785.682 886.751 782.474 877.291 C 778.446 865.409 773.65 853.568 769.153 841.848 C 765.885 833.328 761.72 825.188 758.442 816.689 C 755.101 808.026 752.553 799.108 748.958 790.527 C 743.412 777.292 736.633 764.355 732.293 750.662 C 728.54 738.823 726.178 726.288 723.954 714.071 C 720.976 697.722 720.059 688.86 729.808 674.722 C 738.193 662.561 742.842 638.44 739.983 623.918 C 732.814 587.494 718.94 560.143 687.594 539.324 C 681.345 535.173 674.842 531.488 667.627 529.306 C 650.12 524.01 619.048 524.239 600.981 527.957 C 580.697 532.132 554.116 554.158 543.342 571.498 C 537.929 580.211 537.288 590.478 533.647 599.853 C 531.196 606.167 527.594 612.28 525.93 618.86 C 520.905 638.72 532.793 665.243 540.555 683.175 C 543.656 690.337 547.757 697.831 549.216 705.543 C 552.972 725.397 530.238 764.405 525.176 785.854 C 523.531 792.827 522.88 800.021 520.933 806.929 C 515.553 826.019 507.517 844.579 501.566 863.533 C 498.832 872.24 497.305 881.397 494.424 890.022 C 492.184 896.729 485.457 901.549 483.196 908.177 C 481.075 914.393 480.306 921.507 478.854 927.939 C 477.008 936.121 474.356 944.214 471.951 952.248 C 468.633 963.332 464.017 973.642 460.433 984.538 C 457.832 992.445 456.429 1000.78 454.216 1008.81 C 452.145 1016.32 449.107 1023.57 447.096 1031.07 C 445.147 1038.35 446.073 1046.32 443.616 1053.49 C 441.049 1060.97 435.181 1067.12 432.56 1074.59 C 430.047 1081.74 430.307 1089.85 428.091 1097.09 C 426.255 1103.1 421.653 1108.08 419.749 1114.09 C 417.189 1122.16 417.397 1131.11 414.646 1139.16 C 412.222 1146.25 408.04 1152.77 406.059 1160.01 C 404.669 1165.09 404.981 1170.65 403.217 1175.63 C 399.515 1186.07 395.314 1194.69 392.787 1205.64 C 391.286 1212.15 390.17 1219.22 387.614 1225.4 C 385.275 1231.05 381.486 1236.02 379.577 1241.9 C 374.821 1256.54 380.034 1265.12 369.931 1279.49 C 358.832 1295.27 353.876 1328.49 351.563 1347.77 L 339.938 1359.61 C 338.803 1368.8 338.361 1378.19 337.168 1387.67 C 307.555 1389.78 274.866 1385.27 244.594 1387.73 C 231.005 1388.83 213.057 1386.43 198.506 1386.89 C 165.661 1387.93 132.739 1388.62 99.8828 1388.73 C 89.9802 1388.65 74.6208 1390.03 65.7211 1388.93 C 65.116 1378.29 66.9447 1370.75 56.4552 1366 C 50.9711 1360.33 52.4496 1333.71 49.0512 1325.02 C 44.0897 1312.33 40.5468 1304.2 39.4913 1290.44 L 29.4703 1282.86 C 22.3577 1265.33 26.7101 1255.87 23.9337 1238.44 C 21.6855 1224.33 14.7191 1208.02 12.0942 1193.62 C 6.63345 1163.65 14.1006 1146.64 0 1118.04 L 0 944.11 L 0 0 z"/>
<path transform="translate(0,0)" fill="rgb(251,254,253)" d="M 0 0 L 942.97 0 C 939.246 2.20303 920.899 3.70442 915.577 4.27716 C 904.453 5.47424 891.664 9.18125 880.776 9.98198 C 850.942 12.1759 823.451 17.6668 794.708 25.6419 C 787.041 27.7694 776.613 27.1209 768.732 29.1918 C 760.892 31.2278 752.109 35.7199 743.861 37.9144 C 736.506 39.8713 719.635 38.7075 715.012 43.3809 C 714.607 45.9826 715.596 47.4047 716.693 49.8402 C 712.566 54.7663 696.73 51.3113 692.246 53.4807 C 665.67 66.3382 637.654 74.2571 610.289 85.3845 C 604.374 87.7895 598.807 92.8088 592.99 95.5267 C 573.097 103.3 553.714 111.681 534.975 122.05 C 516.749 131.967 499.033 142.794 481.894 154.489 C 461.887 168.245 443.696 182.224 422.072 194.159 C 412.529 199.426 399.814 213.996 390.141 220.247 C 371.286 235.389 352.197 251.277 333.677 266.839 C 324.014 274.959 311.457 289.517 301.845 298.638 C 286.478 313.293 272.147 328.175 258.054 344.046 C 250.966 350.908 245.58 361.209 238.926 368.086 C 207.313 400.759 186.053 440.738 159.106 476.923 C 150.801 488.076 146.369 492.827 142.117 506.359 C 141.082 509.652 131.627 516.289 130.879 520.896 C 122.953 542.543 109.789 562.758 100.234 583.178 C 86.3475 612.853 76.6707 645.518 64.09 675.865 C 62.1755 680.718 57.3138 686.141 56.0228 690.185 C 50.9817 705.835 45.9499 721.424 39.6899 736.658 C 37.1872 742.748 37.7232 754.785 35.6282 759.841 C 26.9847 780.549 24.2564 799.601 21.8213 821.807 C 21.0736 828.626 12.114 840.425 11.3326 846.062 C 7.63194 872.76 10.4518 900.114 4.45938 926.898 C 3.08821 933.027 3.65558 939.025 0 944.11 L 0 0 z"/>
<path transform="translate(0,0)" fill="rgb(70,111,172)" d="M 1341.78 461.825 C 1342.91 466.212 1344.45 476.346 1346.03 478.944 C 1348.16 479.935 1350.28 480.953 1352.38 481.995 C 1355.39 491.999 1357.49 501.106 1360.77 511.28 C 1367.28 531.457 1378.61 550.143 1382.34 570.839 C 1385.65 589.207 1394.83 605.711 1401.36 623 C 1412.66 655.273 1424.14 687.767 1434.54 720.355 C 1436.61 726.851 1440.34 734.317 1442.76 741.104 L 1541.06 1015.42 C 1547.31 1032.68 1548.89 1050.21 1558.02 1066.88 C 1560.92 1072.17 1562.31 1081.47 1565.17 1087.05 C 1568.9 1094.95 1572.55 1102.3 1576.04 1110.37 C 1583.11 1126.71 1584.77 1147.39 1590.5 1163.36 L 1632.29 1276.66 C 1645.35 1312.53 1669.14 1365.33 1668 1401.62 C 1659.57 1409.09 1652.98 1415.38 1651.97 1427.35 C 1650.86 1440.57 1647.5 1469.35 1651.2 1481.64 C 1695.57 1629.37 1900.19 1560.67 1853.67 1417.66 C 1848.04 1400.33 1837.39 1394.21 1829.15 1379.67 C 1830.6 1368.98 1834.5 1360.74 1836.93 1350.25 C 1838.92 1341.62 1839.55 1330.08 1841.86 1321.89 C 1843.28 1316.88 1848.64 1308.65 1850.11 1302.57 C 1852.77 1291.59 1852.81 1279.22 1855.53 1268.58 C 1858.2 1261.8 1861.49 1256.59 1863.92 1249.55 C 1866.16 1243.07 1865.08 1226.3 1867.21 1221.18 C 1875.35 1201.63 1876.18 1186 1878.41 1165.3 C 1879.18 1158.1 1888.26 1145.86 1889.61 1138.32 C 1893.33 1117.39 1893.48 1100.39 1903.94 1081.03 C 1905.48 1078.18 1905.63 1063.63 1906.91 1059.72 C 1908.42 1052.63 1912.67 1044.42 1914.53 1037.35 C 1916.38 1030.32 1916.01 1017.25 1917.52 1010.74 C 1919.99 1000.04 1926.18 987.328 1929.35 976.614 C 1933.4 962.887 1933.76 933.313 1942.83 923.067 C 1956.97 919.57 2024.82 921.854 2042.7 923.101 C 2044.28 932.689 2043.91 957.648 2045.32 961.256 C 2046.02 961.291 2047.36 961.401 2048 961.351 L 2048 1061.51 C 2040.24 1069.59 2045.92 1121.16 2042.26 1132.97 C 2033.56 1161.02 2035.66 1184.27 2033.51 1212.87 C 2033.06 1218.85 2026.33 1229.36 2025.53 1235.12 C 2019.9 1275.48 2002.97 1312.33 1994.44 1351.6 C 1991.41 1365.56 1984.54 1378.59 1979.23 1391.84 C 1977 1397.42 1972.67 1402.84 1970.69 1408.67 C 1961.06 1439.81 1946.68 1468.14 1931.85 1496.89 C 1909.44 1540.31 1883.77 1581.97 1855.06 1621.5 C 1845.44 1634.61 1835.67 1647.01 1825.26 1659.48 C 1820.12 1665.63 1815.01 1675.72 1810.02 1681.37 C 1787.75 1706.57 1765.84 1731.75 1741.07 1754.6 C 1735.5 1759.75 1729.8 1767.24 1724.16 1772.34 C 1715.56 1780.11 1704.76 1787.25 1696.29 1795.02 C 1668.49 1821.02 1637.85 1843.06 1607.11 1865.27 C 1582.69 1882.1 1554.25 1901.58 1527.74 1914.98 C 1492.72 1932.69 1455.62 1953.33 1419.65 1968.58 C 1367.86 1990 1314.33 2006.97 1259.65 2019.3 C 1250.45 2021.34 1241.06 2022.51 1231.82 2024.38 C 1200.73 2030.67 1170.13 2036.53 1138.52 2039.73 C 1102.15 2043.42 1064.62 2044.3 1028.06 2044.41 C 974.205 2044.57 918.555 2042.93 865.232 2034.77 C 854.025 2033.05 843.09 2029.69 831.957 2027.57 C 816.581 2024.64 800.185 2025.98 784.975 2022.09 C 781.245 2021.13 780.175 2019.81 778.298 2016.44 C 776.087 2012.48 750.138 2010.18 744.095 2008.53 C 735.343 2006.13 726.955 2002.42 718.253 1999.84 C 710.162 1997.43 701.836 1995.84 693.794 1993.29 C 676.658 1987.87 660.52 1980.92 643.963 1974.08 C 635.478 1970.58 626.699 1967.72 618.398 1963.78 C 609.167 1959.41 600.993 1953.15 591.808 1948.8 C 585.227 1945.67 578.071 1943.78 571.329 1941.03 C 558.226 1935.69 544.3 1929.15 531.68 1922.76 C 521.8 1917.76 513.079 1910.31 503.758 1904.34 C 494.839 1898.63 485.123 1894.15 476.048 1888.67 C 457.658 1877.58 440.211 1863.03 422.815 1850.34 C 414.309 1844.13 404.953 1839.27 396.344 1833.24 C 383.391 1824.16 370.655 1813.43 358.546 1803.25 C 336.357 1784.6 316.281 1762.2 295.529 1741.92 C 285.667 1732.28 274.117 1724.16 265.003 1713.82 C 255.139 1702.61 247.508 1689.17 238.244 1677.4 C 218.864 1652.79 196.862 1629.04 179.532 1603.01 C 173.471 1593.91 169.275 1583.59 163.184 1574.5 C 146.164 1549.1 124.732 1522.69 117.169 1492.47 C 138.528 1498.81 154.197 1493.96 175.168 1495 C 254.551 1498.9 335.087 1493.8 414.378 1497.06 C 424.157 1456.03 440.142 1416.86 453.589 1376.94 C 459.277 1360.06 459.165 1344.74 469.372 1328.48 C 471.241 1325.5 472.04 1306.84 474.131 1302.02 C 479.059 1290.68 485.662 1282.2 486.172 1269.52 C 486.747 1261.04 492.943 1249.25 495.609 1240.88 C 498.001 1229.05 505.301 1215.2 507.727 1203.9 C 511.389 1186.84 514.25 1175.55 522.841 1160.18 C 524.409 1157.37 524.938 1143.36 526.153 1139.23 C 528.328 1131.84 532.818 1126.23 535.378 1119.05 C 538.714 1102.38 538.952 1093.69 549.585 1079.85 C 550.494 1078.67 553.045 1058.28 554.727 1053.29 C 570.897 1006.67 585.947 959.657 599.864 912.308 C 602.597 903.068 604.245 893.386 606.649 884.204 C 608.876 877.694 615.757 872.327 617.154 865.48 C 618.947 856.693 618.125 847.976 620.677 839.218 C 629.695 834.273 623.173 832.961 629.106 827.386 L 631.88 827.645 C 631.614 831.178 631.097 833.55 632.321 836.86 C 636.867 830.062 631.575 816.509 640.831 810.557 C 642.362 822.489 646.989 830.848 650.05 841.872 C 653.785 855.327 654.142 862.932 662.891 874.556 C 664.829 877.131 666.061 892.439 668.469 895.986 C 670.471 900.401 677.404 905.287 679.093 910.279 C 680.738 915.141 681.372 923.726 683.205 927.994 C 689.824 943.41 696.277 958.676 701.514 974.655 C 704.084 982.497 704.578 991.055 707.154 998.949 C 709.058 1004.78 716.943 1012.39 718.428 1017.45 C 721.613 1028.29 723.288 1041.33 727.518 1051.91 C 739.129 1080.96 750.304 1110.19 762.224 1139.1 C 766.429 1149.29 768.273 1165.73 772.062 1176.64 C 774.274 1183.01 779.537 1189.88 781.704 1195.74 C 784.703 1203.85 786.526 1213.65 789.583 1221.84 C 794.715 1235.59 800.999 1249.08 806.38 1262.75 C 809.015 1269.44 811.231 1276.44 813.763 1283.22 C 816.209 1289.77 820.401 1297.34 822.578 1303.74 C 825.924 1313.56 828.691 1323.29 832.224 1333.19 C 838.283 1350.18 844.568 1367.39 849.424 1384.75 C 850.927 1390.13 853.485 1405.2 856.009 1408.94 C 859.321 1410.34 858.791 1409.73 863.089 1408.85 C 866.512 1420.89 876.075 1458.92 881.796 1467.32 C 883.87 1470.36 886.249 1473.46 886.899 1477.14 C 882.665 1486.36 874.697 1495.66 870.931 1505.43 C 863.622 1524.39 863.597 1564.15 865.647 1584.43 C 889.092 1617.59 907.822 1645.28 950.915 1653.09 C 979.788 1658.32 997.963 1654.65 1022.79 1638.4 C 1038.06 1628.41 1051.05 1610.55 1064.29 1600.44 L 1064.72 1598.82 C 1067.2 1589.65 1076.22 1576.05 1076.55 1572.62 C 1078.27 1554.29 1075.83 1521.34 1066.52 1505.74 C 1055.85 1487.88 1043.74 1476.79 1051.49 1454.35 C 1059.5 1431.17 1066.31 1408.14 1074.06 1384.92 C 1076.32 1378.16 1077.08 1365.04 1079.14 1358.38 C 1081.58 1350.49 1086.64 1345.93 1088.34 1336.61 C 1091.15 1321.2 1095.87 1306.77 1100.66 1291.91 C 1102.46 1286.35 1104.01 1276.89 1105.91 1271.77 C 1113.18 1252.23 1116.19 1243.9 1118.6 1223.14 C 1122.79 1218.47 1126.18 1214.78 1127.16 1208.41 C 1129.64 1192.4 1135.14 1178.82 1140.08 1163.72 C 1144.87 1149.1 1147.35 1132.5 1152.31 1117.68 C 1155.07 1108.2 1155.32 1094.95 1158.86 1085.91 C 1161.93 1083.28 1163.76 1081.65 1167.12 1079.45 C 1172.25 1065.04 1172.22 1045.79 1179.95 1030.63 C 1183.26 1024.13 1182.47 1008.89 1187.55 1002.34 C 1197.9 987.314 1193.14 980.273 1196.13 964.002 C 1197.04 959.018 1204.22 950.076 1205.59 945.338 C 1207.89 937.389 1207.57 928.016 1210.18 919.869 L 1236.67 837.616 C 1241.97 821.663 1247.99 808.227 1250.47 791.129 C 1251.59 783.413 1258.35 769.886 1258.89 762.556 C 1260.05 744.852 1262.84 736.583 1272.66 721.867 C 1274.34 719.341 1274.18 703.287 1275.81 699.85 C 1282.74 685.258 1287.89 675.906 1288.47 659.057 C 1288.56 656.542 1295.9 644.978 1296.6 641.49 C 1299.22 632.336 1300.1 621.04 1302.8 611.914 L 1327.14 527.115 C 1329.92 517.516 1335.11 507.041 1337.01 497.474 C 1339.24 486.245 1340.51 473.31 1341.78 461.825 z"/>
<path transform="translate(0,0)" fill="rgb(72,109,175)" d="M 443.385 1816.3 C 453.654 1816.5 464.662 1823.4 454.103 1833.44 C 445.519 1832.12 436.032 1825.5 443.385 1816.3 z"/>
<path transform="translate(0,0)" fill="rgb(72,109,175)" d="M 330.767 1698.61 C 340.994 1700.12 340.959 1709.15 333.167 1714.38 C 331.299 1714.05 330.206 1713.72 328.38 1713.21 C 324.109 1707.89 326.838 1703.38 330.767 1698.61 z"/>
<path transform="translate(0,0)" fill="rgb(223,240,244)" d="M 1006.52 1230.26 L 1007.14 1228.47 C 1011.08 1217.34 1010.48 1210.78 1013.34 1200.86 C 1015.24 1194.25 1020.92 1187.14 1024.07 1177.4 C 1025.6 1196.45 1013.06 1225.37 1010.39 1244.54 C 1007.39 1243.41 1008.5 1244.38 1007.03 1241.41 C 1007.18 1237.77 1008 1233.16 1006.52 1230.26 z"/>
<path transform="translate(0,0)" fill="#fbfefd" d="M 627.961 806.869 C 631.496 802.496 635.277 798.674 639.154 794.612 C 639.821 799.974 640.512 805.152 640.831 810.557 C 631.575 816.509 636.867 830.062 632.321 836.86 C 631.097 833.55 631.614 831.178 631.88 827.645 L 629.106 827.386 C 623.173 832.961 629.695 834.273 620.677 839.218 L 621.824 836.042 C 625.696 825.52 626.5 818.038 627.961 806.869 z"/>
<path transform="translate(0,0)" fill="rgb(223,240,244)" d="M 1309.16 225.604 L 1310.72 225.776 C 1314.92 229.016 1314.9 237.196 1311.9 241.304 C 1309.88 244.074 1306.11 244.104 1302.97 244.798 C 1295.64 246.26 1296.27 230.768 1309.16 225.604 z"/>
</svg>
